<?xml version="1.0" encoding="UTF-8" standalone="no"?>

<svg
   width="16"
   height="16"
   viewBox="0 0 16 16"
   version="1.1"
   id="logo"
   xmlns="http://www.w3.org/2000/svg"
   xmlns:svg="http://www.w3.org/2000/svg">
   <path
      id="fruits"
      style="fill:#ffffff;stroke:#000000;stroke-linecap:round;stroke-linejoin:round;stroke-width:0.25;stroke-dasharray:none"
      d="M 3.1992188 4.4003906 A 1.2 1.2 0 0 0 2 5.5996094 A 1.2 1.2 0 0 0 3.1992188 6.8007812 A 1.2 1.2 0 0 0 3.5644531 6.7421875 A 1.2 1.2 0 0 0 3.1992188 7.5996094 A 1.2 1.2 0 0 0 4.4003906 8.8007812 A 1.2 1.2 0 0 0 4.765625 8.7421875 A 1.2 1.2 0 0 0 4.4003906 9.5996094 A 1.2 1.2 0 0 0 5.5996094 10.800781 A 1.2 1.2 0 0 0 5.9648438 10.742188 A 1.2 1.2 0 0 0 5.5996094 11.599609 A 1.2 1.2 0 0 0 6.8007812 12.800781 A 1.2 1.2 0 0 0 7.1660156 12.742188 A 1.2 1.2 0 0 0 6.8007812 13.599609 A 1.2 1.2 0 0 0 8 14.800781 A 1.2 1.2 0 0 0 9.1992188 13.599609 A 1.2 1.2 0 0 0 8.8398438 12.744141 A 1.2 1.2 0 0 0 9.1992188 12.800781 A 1.2 1.2 0 0 0 10.400391 11.599609 A 1.2 1.2 0 0 0 10.039062 10.744141 A 1.2 1.2 0 0 0 10.400391 10.800781 A 1.2 1.2 0 0 0 11.599609 9.5996094 A 1.2 1.2 0 0 0 11.238281 8.7441406 A 1.2 1.2 0 0 0 11.599609 8.8007812 A 1.2 1.2 0 0 0 12.800781 7.5996094 A 1.2 1.2 0 0 0 12.441406 6.7441406 A 1.2 1.2 0 0 0 12.800781 6.8007812 A 1.2 1.2 0 0 0 14 5.5996094 A 1.2 1.2 0 0 0 12.800781 4.4003906 A 1.2 1.2 0 0 0 11.599609 5.5996094 A 1.2 1.2 0 0 0 11.960938 6.4550781 A 1.2 1.2 0 0 0 11.599609 6.4003906 A 1.2 1.2 0 0 0 11.234375 6.4589844 A 1.2 1.2 0 0 0 11.599609 5.5996094 A 1.2 1.2 0 0 0 10.400391 4.4003906 A 1.2 1.2 0 0 0 9.1992188 5.5996094 A 1.2 1.2 0 0 0 9.5605469 6.4550781 A 1.2 1.2 0 0 0 9.1992188 6.4003906 A 1.2 1.2 0 0 0 8.8339844 6.4589844 A 1.2 1.2 0 0 0 9.1992188 5.5996094 A 1.2 1.2 0 0 0 8 4.4003906 A 1.2 1.2 0 0 0 6.8007812 5.5996094 A 1.2 1.2 0 0 0 7.1640625 6.4570312 A 1.2 1.2 0 0 0 6.8007812 6.4003906 A 1.2 1.2 0 0 0 6.4355469 6.4589844 A 1.2 1.2 0 0 0 6.8007812 5.5996094 A 1.2 1.2 0 0 0 5.5996094 4.4003906 A 1.2 1.2 0 0 0 4.4003906 5.5996094 A 1.2 1.2 0 0 0 4.7636719 6.4570312 A 1.2 1.2 0 0 0 4.4003906 6.4003906 A 1.2 1.2 0 0 0 4.0351562 6.4589844 A 1.2 1.2 0 0 0 4.4003906 5.5996094 A 1.2 1.2 0 0 0 3.1992188 4.4003906 z M 5.9648438 6.7421875 A 1.2 1.2 0 0 0 5.5996094 7.5996094 A 1.2 1.2 0 0 0 5.9609375 8.4550781 A 1.2 1.2 0 0 0 5.5996094 8.4003906 A 1.2 1.2 0 0 0 5.234375 8.4589844 A 1.2 1.2 0 0 0 5.5996094 7.5996094 A 1.2 1.2 0 0 0 5.2382812 6.7441406 A 1.2 1.2 0 0 0 5.5996094 6.8007812 A 1.2 1.2 0 0 0 5.9648438 6.7421875 z M 8.3652344 6.7421875 A 1.2 1.2 0 0 0 8 7.5996094 A 1.2 1.2 0 0 0 8.3632812 8.4570312 A 1.2 1.2 0 0 0 8 8.4003906 A 1.2 1.2 0 0 0 7.6347656 8.4589844 A 1.2 1.2 0 0 0 8 7.5996094 A 1.2 1.2 0 0 0 7.6386719 6.7441406 A 1.2 1.2 0 0 0 8 6.8007812 A 1.2 1.2 0 0 0 8.3652344 6.7421875 z M 10.765625 6.7421875 A 1.2 1.2 0 0 0 10.400391 7.5996094 A 1.2 1.2 0 0 0 10.763672 8.4570312 A 1.2 1.2 0 0 0 10.400391 8.4003906 A 1.2 1.2 0 0 0 10.035156 8.4589844 A 1.2 1.2 0 0 0 10.400391 7.5996094 A 1.2 1.2 0 0 0 10.039062 6.7441406 A 1.2 1.2 0 0 0 10.400391 6.8007812 A 1.2 1.2 0 0 0 10.765625 6.7421875 z M 7.1660156 8.7421875 A 1.2 1.2 0 0 0 6.8007812 9.5996094 A 1.2 1.2 0 0 0 7.1640625 10.457031 A 1.2 1.2 0 0 0 6.8007812 10.400391 A 1.2 1.2 0 0 0 6.4355469 10.458984 A 1.2 1.2 0 0 0 6.8007812 9.5996094 A 1.2 1.2 0 0 0 6.4414062 8.7441406 A 1.2 1.2 0 0 0 6.8007812 8.8007812 A 1.2 1.2 0 0 0 7.1660156 8.7421875 z M 9.5644531 8.7421875 A 1.2 1.2 0 0 0 9.1992188 9.5996094 A 1.2 1.2 0 0 0 9.5605469 10.455078 A 1.2 1.2 0 0 0 9.1992188 10.400391 A 1.2 1.2 0 0 0 8.8339844 10.458984 A 1.2 1.2 0 0 0 9.1992188 9.5996094 A 1.2 1.2 0 0 0 8.8398438 8.7441406 A 1.2 1.2 0 0 0 9.1992188 8.8007812 A 1.2 1.2 0 0 0 9.5644531 8.7421875 z M 8.3652344 10.742188 A 1.2 1.2 0 0 0 8 11.599609 A 1.2 1.2 0 0 0 8.3632812 12.457031 A 1.2 1.2 0 0 0 8 12.400391 A 1.2 1.2 0 0 0 7.6347656 12.458984 A 1.2 1.2 0 0 0 8 11.599609 A 1.2 1.2 0 0 0 7.6386719 10.744141 A 1.2 1.2 0 0 0 8 10.800781 A 1.2 1.2 0 0 0 8.3652344 10.742188 z " />
   <g
      id="leaves"
      style="fill:#000000;stroke:#ffffff;">
      <path
         style="stroke-linecap:round;stroke-linejoin:round;stroke-width:0.25;stroke-dasharray:none"
         d="m 7.3887845,2.6002242 c 0,0 -1.6629366,-0.659274 -2.2592335,-0.1259542 -0.5962969,0.5333198 -1.3185481,3.3258731 -1.3185481,3.3258731 0,0 2.8555305,-0.4073656 3.4518274,-0.9406855 C 7.8591272,4.3261379 7.3887845,2.6002242 7.3887845,2.6002242 Z"
         id="leave1" />
      <path
         style="stroke-width:0.25;stroke-linecap:round;stroke-linejoin:round;stroke-dasharray:none;"
         d="m 8,1.6 c 0,0 1.6,0.8 1.6,1.6 0,0.8 -1.6,3 -1.6,3 C 8,6 6.4,4 6.4,3.2 6.4,2.4 8,1.6 8,1.6 Z"
         id="leave2" />
      <path
         style="stroke-linecap:round;stroke-linejoin:round;stroke-width:0.25;stroke-dasharray:none"
         d="m 8.6111458,2.6001891 c 0,0 1.6629512,-0.6592362 2.2592362,-0.1259029 0.596285,0.5333333 1.318472,3.325903 1.318472,3.325903 0,0 -2.8555207,-0.4074305 -3.4518054,-0.9407638 C 8.1407638,4.326092 8.6111458,2.6001891 8.6111458,2.6001891 Z"
         id="leave3" />
   </g>
</svg>